<svg version="1.1" id="Layer_1" xmlns="http://www.w3.org/2000/svg" viewBox="40 19 68 72"><style>.st0,.st1,.st2,.st3{fill:#fff}</style><path class="st0" d="M80.3 89.8c-1.8.1-3.6.2-5.4.4-.5 0-.6-.3-.7-.6-.5-1.2-.7-2.5-1.1-3.8-.2-.6-.3-1.3-.6-1.8-1.7-3-2.5-6.3-3.5-9.6-.6-2.2-1.2-4.5-2-6.7-.6-1.7-.5-3.3-.1-5 1.9-7.5 5.9-14 10.4-20.2 4.1-5.6 9.1-10.2 14.2-14.8.2-.2.4-.4.7-.6 1.3-1.2 1.2-1.2 2.6-.1.4.3.5.5.1.8-.3.2-.6.4-.8.7-5.3 4.5-10.4 9.2-14.3 15-2.3 3.5-4.6 7-5.6 11.2q-1.35 5.55-.9 11.1c.5 6.8 2.1 13.4 4.7 19.7.6 1.3 1.3 2.6 2 3.8.1-.1.3.1.3.5"/><path class="st1" d="M93.9 82c-1.7-.6-3.1-1.6-4.1-3.1-3.1-5-6.2-10-7.6-15.9-.8-3.4-1.4-6.8-.9-10.3.2-1.8 1-3.4 1.9-5 2.3-4.1 5.3-7.8 8.5-11.2 1.9-2 3.7-4.1 5.5-6.2.4-.4.6-.5 1 0 .5.6 1.1 1.2 1.6 1.8.4.4.3.6-.1 1-1.9 1.4-3.8 2.9-5.4 4.6-3.4 3.7-6.3 7.8-7.2 12.8-1.3 6.7.5 12.6 4.7 17.7 1.9 2.3 3.9 4.4 6.5 6 1.1.6 2.2 1 3.4 1.4.6.2.7.4.2.8-.7.8-1.4 1.6-2 2.4-.4.5-.8.5-1.3.2-1.6-1-3.2-2.1-4.6-3.4-3.9-4-7.1-8.3-8.8-13.7-1.2-3.8-1.6-7.7-.8-11.6.1-.3.1-.5-.1-.9-.5 1.6-.6 3.1-.7 4.6-.4 6 1.4 11.4 4.4 16.5 1.8 2.9 3.5 5.9 6 8.3.3.2.4.6.7.8-.2.3-.3.6.1.9.2.2.4.5.6.7.2.3.2.5 0 .8-.2.4-.5.2-.7.1-.2-.2-.5-.4-.8-.1"/><path class="st2" d="M94.8 52.9c-.3 1.1-.5 2.2-.4 3.2.2 2.1.7 4.1 2.2 5.7 1.4 1.5 3.1 2.3 5.1 2.5 1.8.1 3.5.1 5.3-.3.5-.1.5 0 .4.4q-.45 2.1-1.2 4.2c-.2.4-.4.6-.9.5-4.5-.7-8.5-2.2-11.6-5.7-2.2-2.5-2.9-5.4-2.7-8.6.4-8.3 5-13.9 11.5-18.3.2-.2.5-.5.8-.2.2.2-.1.5-.3.7-1.3 1.5-2.7 2.9-3.8 4.6-1.6 2.4-2.4 5.1-2.5 8 0 2.5 1.2 4.4 3.2 5.6 1.3.8 2.8 1 4.3.6 1.2-.3 2.5-.6 3.6-1.1.5-.2.6-.1.6.4-.1 1.4-.2 2.8-.3 4.1 0 .3-.1.4-.4.5-2.2.3-4.5.8-6.7.9-2.9.1-4.6-1.4-5.9-3.8-.4-.8-.6-1.7-.3-2.7q.3-.3 0-1.2"/><path class="st0" d="M44.2 71.3c-.7-1-.7-1.3-.1-2.2 1.5-2.2 3.5-4 5.5-5.7 2.9-2.5 5.8-4.9 8.6-7.4 2.3-2 4.1-4.4 5.9-6.8 4.5-6.4 8.8-13 13.6-19.1 1.9-2.4 3.8-4.7 5.9-6.8 1.6-1.6 1.8-1.6 3.8-.7s2.1.9.4 2.4C82.6 29.8 77.5 35 73 40.8c-3 3.9-5.2 8.2-7.4 12.5l-1.8 3.3c-.9 1.8-2.4 3-4.4 3.6-5.9 1.7-10.3 5.5-14.4 9.9-.2.3-.5.7-.8 1.2"/><path class="st0" d="M83 21.4c-5.2 5.4-9.6 11.4-13.8 17.5-1.9 2.8-4 5.4-6.1 8.1-2.1 2.6-4.7 4.7-7.5 6.5-4.6 3-8.5 6.8-12.3 10.7l-.3.3c-1 1.5-.8 1.5-1.6-.1-.6-1.1-.4-2 .3-3 3.1-4.3 6.8-8 10.9-11.3 2.4-1.9 4.8-3.7 7.3-5.5 1.8-1.3 3.3-2.8 4.7-4.6 4.9-6.2 10.2-12.2 15.3-18.3.4-.5 1-.8 1.7-.6.4.2.9.3 1.4.3"/><path class="st3" d="M75.7 19.3c-.1-.2-.5-.2-.8-.2-1.1.2-2.2.1-3.2.2-1.3 0-2.3.4-3.2 1.5-1.3 1.7-2.6 3.4-3.8 5.1-2 3-3.9 6-6.3 8.7-2.1 2.2-4.7 3.7-7.1 5.3-2.6 1.7-5.3 3.3-7.3 5.8-1.6 2-3.2 3.9-3.4 6.6-.1 1.2-.4 2.4-.1 3.6.8-1 1.5-1.9 2.2-2.8 2.9-3.8 6.5-6.7 10.4-9.3 2.4-1.6 4.7-3.2 6.7-5.3s3.9-4.4 5.8-6.6c.5-.6 1.2-1.1 1.4-2 .3-.2.6-.4.8-.7 1.3-1.6 2.5-3.2 4-4.7.2-.2.3-.4.4-.6 1.4-1.1 2.2-2.7 3.4-4-.1-.2.2-.4.1-.6M65 29.7"/><path class="st0" d="M45.9 74.8c-.1-.3 0-.5.1-.6 3.3-3.3 6.6-6.5 10.7-8.9 1.3-.8 2.7-1.6 4.2-1.9 1.6-.3 2.7.1 3.6 1.6.9 1.6 1.2 3.3 1.5 5.1.9 6.4 1.8 12.7 3.1 19.1.1.6 0 .7-.6.6-1.4-.2-2.7-.6-4-.9-.4-.1-.5-.3-.5-.6-.5-4.6-1.7-9-2.9-13.4-.4-1.7-1.3-3.1-2.6-4.3s-2.7-1.7-4.4-1.1c-2.6.9-4.9 2.1-6.7 4.2-.5.3-.9.7-1.5 1.1"/><path class="st3" d="M41.2 45.8c.1-2.5.9-4.7 1.9-6.9 1.1-2.2 2.3-4.3 4-6.2 1-1.1 2.1-2 3.4-2.6 1.7-.8 3.1-1.9 4.1-3.5.9-1.4 2.2-2.5 3.7-3.3 2.4-1.3 4.8-2.4 7.5-3.1.3-.1.5-.2.9 0-.6.9-1.3 1.8-1.9 2.7-2 2.8-3.9 5.7-6.2 8.3-1.4 1.6-3.1 2.6-4.9 3.5-2.1 1.1-4.3 2.3-6.1 3.9-2.5 2.2-4.8 4.4-6.4 7.2"/><path class="st1" d="M75 63.6c-.1-7.9 2.7-14.7 7.3-21 3.9-5.2 8.3-9.8 13-14.3.5-.5.6-.2 1 .1s.4.5 0 .9c-3 3.1-6.2 6.1-9.1 9.3s-5.5 6.5-7.5 10.4c-1.4 2.7-1.9 5.6-2.4 8.5-1.2 6.7-.3 13.1 2 19.4q2.1 5.7 6 10.5c.9 1.1.8 1.2-.5 1.7-.8.3-1.3.2-1.9-.6-4.4-6.7-7.2-13.9-7.8-22 0-.5-.1-.9-.1-1.4z"/><path class="st2" d="M103.8 37.9c.8 1 1.1 2 1.5 3.1.2.6.7 1.3.6 1.9s-1 .7-1.5 1.1c-1.4 1-2.4 3.9-1.9 5.5.1.3.3.6.5.8.6.4 1 .2 1.1-.4l.3-1.8c.1-.5.2-.9.4-1.3.3-.4.6-.8 1.1-.8.6 0 .8.4 1 .9.4 1 .7 2.1.7 3.2s-.4 2.1-1.3 2.7c-1.4.9-3 1.2-4.6.4-1.5-.7-2.5-2.1-2.6-3.9-.2-2.6.8-4.9 1.9-7.1.8-1.5 2-2.7 2.8-4.3"/><path class="st1" d="M78.6 58.9c.3 2.7.6 5.1 1.3 7.5 1.7 5.8 4.8 10.9 8.7 15.4 1 1.2 2 2.4 3.3 3.3.4.3.3.4-.1.6-.7.4-1.5.8-2.2 1.3-.4.2-.6.1-.8-.1-5.2-5-8.3-11.2-9.9-18.2-.8-3.2-.9-5.9-.3-9.8"/><path class="st0" d="M49.8 78.7c1.4-2.3 3.5-3.7 6.2-3.8 1.3-.1 2.1.6 2.5 1.9.6 2 .6 4.1.8 6.1.1 1.1.2 2.3.5 3.4.2.6 0 .6-.6.5-2.2-.6-3.7-2-4.6-4.1-.6-1.4-1.1-2.8-1.4-4.3-.1-.6-.4-.7-.9-.6-.8.2-1.6.6-2.5.9M93.9 82c.3-.3.5-.1.8 0 .2.1.5.3.7-.1.2-.3.2-.6 0-.8s-.3-.5-.6-.7c-.4-.3-.3-.6-.1-.9.8.8 1.5 1.7 2.4 2.3q.45.3 0 .6c-.4.3-.8.8-1.2.9-.6.2-.7-.6-1.1-.8-.4 0-.6-.3-.9-.5"/></svg>