<svg width="113" height="136" viewBox="0 0 113 136" fill="none" xmlns="http://www.w3.org/2000/svg"><path d="M63.315 0c4.127.274 7.92.046 12.044.503a23.673 23.673 0 0 1 10.05 3.66 23.574 23.574 0 0 1 7.397 7.702c7.875 12.002 12.09 25.462 15.111 39.287a233.431 233.431 0 0 1 4.533 26.965c2.016 19.667-5.082 36.095-24.407 45.448-10.717 5.202-21.557 9.811-33.567 11.271-4.692.778-9.51.244-13.916-1.544a25.686 25.686 0 0 1-11.04-8.582C19.08 111.614 12.9 96.557 7.965 80.814a146.132 146.132 0 0 1-7.11-38.652c-.412-11.817 4.764-20.624 14.15-27.377A77.288 77.288 0 0 1 56.996.32C58.965.229 60.934.09 62.858 0h.457Z" fill="#f8fafc"/></svg>