<?xml version="1.0" encoding="utf-8"?>
<!-- Generator: Adobe Illustrator 27.5.0, SVG Export Plug-In . SVG Version: 6.00 Build 0)  -->
<svg version="1.1" xmlns="http://www.w3.org/2000/svg" xmlns:xlink="http://www.w3.org/1999/xlink" x="0px" y="0px"
	 viewBox="0 0 318.069 284.366" style="enable-background:new 0 0 318.069 284.366;" xml:space="preserve">
<g id="Layer_2">
</g>
<g id="Layer_1">
	<g>
		<g>
			<path style="fill:#CC9D52;" d="M172.482,68.504c0,0,13.822-38.63,42.238-63.655l95.941,49.443c0,0-24.524,6.085-42.162,59.822
				L172.482,68.504z"/>
			<path style="fill:#936118;" d="M268.787,114.787l-0.497-0.237l-96.413-45.797l0.148-0.414
				c0.138-0.387,14.191-39.035,42.374-63.855l0.248-0.219l0.295,0.152l97.082,50.031l-1.247,0.313
				c-0.243,0.061-24.492,6.712-41.819,59.503L268.787,114.787z M173.091,68.256l95.119,45.182
				c15.561-47.018,36.112-57.358,41.194-59.25L214.792,5.431C188.518,28.715,174.674,64.048,173.091,68.256z"/>
		</g>
		<g>
			<polygon style="fill:#DEAF5B;" points="74.056,119.895 88.391,224.148 171.513,279.147 270.807,216.121 268.498,114.113 			"/>
			<g style="opacity:0.5;">
				<polygon style="fill:#DEAF5B;" points="222.245,231.443 270.392,197.788 268.498,114.113 151.669,117.587 163.215,175.926 				
					"/>
			</g>
			<g>
				<g>
					<polygon style="fill:#C0832D;" points="74.056,119.895 88.391,224.148 171.513,279.147 158.508,117.383 					"/>
					<path style="fill:#99590D;" d="M172.076,280.101l-0.832-0.549l-83.304-55.12l-0.029-0.217L73.502,119.426l85.453-2.541
						L172.076,280.101z M88.842,223.865l82.107,54.328l-12.887-160.311l-83.452,2.482L88.842,223.865z"/>
				</g>
			</g>
			<path style="fill:#C0832D;" d="M162.354,165.214l-3.845-47.83l-84.453,2.511l14.16,102.572
				c7.335-5.166,26.283-24.199,74.999-46.54l-0.176-2.193C162.142,170.811,161.976,167.96,162.354,165.214z"/>
			<g>
				<g>
					<polygon style="fill:#7A4409;" points="172.482,68.504 74.056,119.895 163.741,175.686 173.482,169.961 172.064,159.229 					
						"/>
					<path style="fill:#6D3B05;" d="M163.734,176.253l-90.655-56.396l99.892-52.156l-0.421,91.53l1.456,10.984L163.734,176.253z
						 M75.034,119.931l88.714,55.189l9.212-5.414l-1.376-10.413l0.409-89.987L75.034,119.931z"/>
				</g>
			</g>
			<g style="opacity:0.5;">
				<path style="fill:#662924;" d="M173.482,169.961l-1.418-10.732l0.417-90.725l-4.399,2.297
					c-1.019,19.836-5.818,58.52-26.743,90.951l22.4,13.935L173.482,169.961z"/>
			</g>
			<g>
				<g>
					<path style="fill:#F0C984;" d="M163.741,175.686c0,0,41.176,26.699,58.987,43.926l89.979-63.065
						c0,0-12.068-30.449-44.208-42.435L163.741,175.686z"/>
					<path style="fill:#BA8735;" d="M222.679,220.24l-0.288-0.279c-17.575-16.998-58.502-43.602-58.914-43.868l-0.658-0.427
						l105.633-62.089l0.216,0.081c31.973,11.924,44.368,42.405,44.489,42.711l0.141,0.356L222.679,220.24z M164.662,175.708
						c5.327,3.488,41.566,27.402,58.115,43.279l89.331-62.611c-1.473-3.413-14.011-30.599-43.563-41.728L164.662,175.708z"/>
				</g>
			</g>
			<g>
				<path style="fill:#CC9D52;" d="M74.056,119.895L28.187,64.907c0,0,36.603-27.613,109.681-55.011c0,0,30.08,45.212,34.614,58.608
					L74.056,119.895z"/>
				<path style="fill:#936118;" d="M73.934,120.505l-0.25-0.3L27.488,64.826l0.407-0.307c0.092-0.069,9.385-7.041,27.489-17.266
					c16.698-9.432,44.534-23.647,82.313-37.811l0.361-0.135l0.213,0.32c1.23,1.849,30.168,45.419,34.67,58.721l0.133,0.393
					l-0.368,0.192L73.934,120.505z M28.889,64.992l45.289,54.292l97.708-51.016c-4.679-13.039-31.531-53.737-34.21-57.782
					c-37.525,14.092-65.179,28.218-81.791,37.6C39.948,57.085,30.865,63.55,28.889,64.992z"/>
			</g>
			<g style="opacity:0.5;">
				<path style="fill:#F0C984;" d="M272.138,115.597c-1.187-0.518-2.393-1.019-3.64-1.484l-104.757,61.574
					c0,0,41.176,26.699,58.987,43.926l0.465-0.326C225.739,162.551,256.046,129.336,272.138,115.597z"/>
			</g>
			<path style="fill:#F0C984;" d="M285.233,125.658c0,0,16.327,13.734,23.633,29.065c-55.639,40.174-55.639,40.174-55.639,40.174
				s37.299-32.063,42.249-39.143C300.425,148.674,285.233,125.658,285.233,125.658z"/>
			<path style="opacity:0.5;fill:#CC9D52;" d="M224.897,13.515l77.627,40.097c0,0-18.69,12.686-30.742,43.85
				c2.036-22.842,16.916-39.187,0.879-51.169C256.624,34.31,224.897,13.515,224.897,13.515z"/>
			<g style="opacity:0.5;">
				<path style="fill:#F0C984;" d="M172.482,68.504c-4.534-13.396-34.614-58.608-34.614-58.608
					c-0.362,0.136-0.709,0.271-1.069,0.407c9.464,19.262,23.534,69.334-64.634,106.839l1.891,2.752L172.482,68.504z"/>
			</g>
			<path style="opacity:0.5;fill:#CC9D52;" d="M133.168,14.223c0,0-70.573,30.123-98.174,49.072
				c22.614,28.351,36.835,47.126,36.835,47.126S48.15,74.361,50.761,64.835C53.373,55.309,133.168,14.223,133.168,14.223z"/>
			<g>
				<path style="fill:none;" d="M163.741,175.686c-0.272-0.654-0.504-1.305-0.702-1.953l0.176,2.193
					C163.392,175.846,163.563,175.767,163.741,175.686z"/>
			</g>
		</g>
		<g style="opacity:0.5;">
			<path style="fill:#F0C984;" d="M216.626,5.831l-1.906-0.982c-28.415,25.025-42.238,63.655-42.238,63.655l96.016,45.609
				c0.579-1.765,1.166-3.475,1.759-5.139C218.418,75.768,215.209,27.123,216.626,5.831z"/>
		</g>
		<g>
			<polygon style="fill:#C0832D;" points="172.482,68.504 172.064,159.229 173.482,169.961 268.498,114.113 			"/>
			<path style="fill:#99590D;" d="M173.098,170.749l-1.515-11.457L172,67.738l97.532,46.329l-0.789,0.463L173.098,170.749z
				 M172.963,69.269l-0.413,89.962l1.318,9.941l93.596-55.013L172.963,69.269z"/>
		</g>
		<g style="opacity:0.5;">
			<path style="fill:#844840;" d="M172.482,68.504l-0.417,90.725l1.418,10.732l32.383-19.034
				c-20.894-28.959-25.863-63.483-27.035-79.407L172.482,68.504z"/>
		</g>
		<g>
			<g>
				<polygon style="fill:#491412;" points="182.946,164.398 172.064,159.229 153.156,169.102 163.741,175.686 				"/>
				<path style="fill:#2B0505;" d="M163.735,176.253l-11.557-7.188l19.876-10.378l11.926,5.666L163.735,176.253z M154.133,169.139
					l9.615,5.981l18.164-10.677l-9.836-4.673L154.133,169.139z"/>
			</g>
		</g>
		<g>
			<g>
				<path style="fill:#F0C984;" d="M74.056,119.895c0,0-41.824-1.328-68.54,22.58l81.655,67.044c0,0,30.207-23.448,76.57-33.833
					L74.056,119.895z"/>
				<path style="fill:#BA8735;" d="M87.162,210.139l-0.299-0.245L4.771,142.492l0.421-0.378
					c26.553-23.763,68.461-22.718,68.879-22.704l0.131,0.005l0.11,0.068l90.692,56.418l-1.157,0.259
					c-45.729,10.243-76.078,33.509-76.379,33.742L87.162,210.139z M6.262,142.461l80.921,66.44
					c3.298-2.463,32.464-23.575,75.3-33.426l-88.571-55.099C71.347,120.321,31.811,119.991,6.262,142.461z"/>
			</g>
		</g>
		<g style="opacity:0.5;">
			<path style="fill:#F0C984;" d="M163.741,175.686l-89.685-55.792c0,0-1.645-0.051-4.482,0.051
				c14.947,12.976,43.63,45.687,16.253,88.47l1.344,1.103C87.171,209.519,117.377,186.071,163.741,175.686z"/>
		</g>
		<path style="fill:#F0C984;" d="M50.664,124.872c0,0-17.872,0.789-39.301,16.816c50.369,40.327,62.091,49.968,62.091,49.968
			s-36.891-33.292-45.123-43.789C20.1,137.37,37.136,128.732,50.664,124.872z"/>
	</g>
</g>
</svg>
