<svg width="28px" height="28px" viewBox="0 0 1.26 1.26" xmlns="http://www.w3.org/2000/svg" xmlns:xlink="http://www.w3.org/1999/xlink" aria-hidden="true" role="img" class="iconify iconify--twemoji" preserveAspectRatio="xMidYMid meet">
  <path fill="#141414" d="M1.26 0.945a0.14 0.14 0 0 1 -0.14 0.14H0.14A0.14 0.14 0 0 1 0 0.945V0.315a0.14 0.14 0 0 1 0.14 -0.14h0.98a0.14 0.14 0 0 1 0.14 0.14v0.63z"/>
  <path fill="#EEE" d="M0 0.455h1.26v0.35H0z"/>
  <path fill="#CE1225" d="M1.12 0.175H0.14A0.14 0.14 0 0 0 0 0.315v0.14h1.26v-0.14a0.14 0.14 0 0 0 -0.14 -0.14z"/>
  <path fill="#BF9300" d="M0.516 0.755s0.001 0.009 0.008 0.013c0 0 -0.002 0.007 0.006 0.01 0.008 0.004 0.038 0.01 0.089 0.01s0.08 -0.005 0.088 -0.009c0.008 -0.004 0.008 -0.013 0.008 -0.013s0.008 -0.004 0.008 -0.01c-0.001 -0.005 -0.011 -0.011 -0.011 -0.011s-0.003 -0.007 -0.01 -0.01c-0.008 -0.003 -0.032 0.012 -0.079 0.01 -0.047 -0.002 -0.074 -0.009 -0.083 -0.009 -0.009 0.001 -0.013 0.009 -0.013 0.009s-0.01 0.004 -0.011 0.009z"/>
  <path fill="#EEE" d="M0.522 0.754c0 0.003 0.007 0.01 0.007 0.01s0 0.008 0.007 0.01 0.036 0.008 0.083 0.007c0.047 -0.001 0.08 -0.003 0.084 -0.007 0.004 -0.003 0.007 -0.01 0.007 -0.01s0.008 -0.005 0.007 -0.01 -0.011 -0.007 -0.011 -0.007 -0.003 -0.007 -0.007 -0.009 -0.027 0.011 -0.078 0.011c-0.049 0 -0.078 -0.012 -0.083 -0.011 -0.005 0.001 -0.008 0.01 -0.008 0.01s-0.008 0.002 -0.009 0.006z"/>
  <path fill="#BF9300" d="M0.73 0.542s-0.001 -0.026 -0.025 -0.022c-0.024 0.003 -0.025 0.015 -0.05 0.018l-0.005 0.001a0.112 0.112 0 0 1 -0.007 -0.036c0 -0.016 0.005 -0.024 -0.012 -0.032 -0.017 -0.008 -0.02 -0.001 -0.02 -0.001s-0.013 -0.007 -0.019 -0.002 -0.003 0.018 0 0.014c0.003 -0.004 0.014 0.007 0.014 0.007 0.004 0.018 -0.007 0.038 -0.014 0.049 -0.003 0 -0.004 0 -0.007 -0.001 -0.025 -0.003 -0.027 -0.014 -0.05 -0.018 -0.024 -0.003 -0.025 0.022 -0.025 0.022l-0.009 0.199 0.019 -0.015 0 -0.002 0.04 -0.035 0.007 -0.007 -0.017 0.048s-0.025 -0.002 -0.018 0.019c0 0 0.004 -0.011 0.01 -0.009s0.026 0.007 0.026 0.007l0.007 0.01 0.008 -0.008 0.026 -0.001s0.008 0.002 0.008 0.009a0.016 0.016 0 0 0 0.001 -0.01l0.008 -0.001a0.016 0.016 0 0 0 0.001 0.01c-0.001 -0.007 0.008 -0.009 0.008 -0.009l0.026 0.001 0.008 0.008 0.007 -0.01s0.019 -0.005 0.026 -0.007 0.01 0.009 0.01 0.009c0.007 -0.02 -0.018 -0.019 -0.018 -0.019l-0.016 -0.046 0.004 0.004 0.04 0.035 0 0.002 0.019 0.015 -0.009 -0.199zm-0.109 0.12c-0.039 -0.024 -0.043 -0.086 -0.043 -0.086s0.024 -0.001 0.042 -0.014c0.016 0.014 0.043 0.013 0.043 0.013s-0.002 0.062 -0.043 0.087zm0.09 -0.128 -0.033 0.032 -0.006 0.002c-0.006 0 -0.034 0 -0.051 -0.015 -0.022 0.015 -0.052 0.016 -0.052 0.016l-0.005 -0.002 -0.037 -0.033 -0.01 0.004c0 -0.004 0.003 -0.013 0.015 -0.011 0.02 0.003 0.028 0.014 0.049 0.016l0.006 0.001 -0.002 0.003c0.003 0 0.008 -0.001 0.011 -0.002l0.004 0 -0.002 0.006a0.049 0.049 0 0 0 0.01 -0.005l0.009 0.001 0.002 0.003 0.007 -0.003 0.005 0c0.004 0.002 0.01 0.004 0.01 0.004l0.001 -0.005a0.028 0.028 0 0 0 0.013 0.003c-0.001 -0.001 -0.002 -0.003 -0.003 -0.004l0.005 -0.001c0.021 -0.002 0.029 -0.013 0.049 -0.016 0.012 -0.002 0.014 0.007 0.015 0.011l-0.01 -0.004z"/>
  <path fill="#EEE" d="m0.608 0.661 -0.02 0.075 -0.033 -0.007 0.034 -0.096zm0.024 0 0.02 0.075 0.033 -0.007 -0.034 -0.096z"/>
  <path fill="#BF9300" d="M0.587 0.582s0.003 0.032 0.017 0.056V0.575s-0.009 0.005 -0.017 0.007zm0.068 0.001s-0.003 0.032 -0.017 0.056v-0.063c0 0 0.009 0.005 0.017 0.007z"/>
  <path fill="#EEE" d="M0.593 0.475s0.004 -0.004 0.015 0.004c0.007 0.005 0.013 0.009 0.013 0.009s0.004 -0.005 0.011 -0.004c0.007 0.001 0.003 0.01 0.004 0.029 0.001 0.019 0.009 0.027 0.009 0.027l-0.009 -0.005 0.001 0.006 -0.01 -0.005 -0.005 0.007 -0.005 -0.008 -0.008 0.005 -0.002 -0.006 -0.009 0.005s0.014 -0.017 0.015 -0.036c0 -0.006 -0.001 -0.018 -0.001 -0.018s-0.009 -0.011 -0.017 -0.01z"/>
  <path fill="#BF9300" d="M0.544 0.758c-0.006 0.004 -0.004 0.006 0 0.008s0.027 0.004 0.073 0.005c0.048 0.001 0.077 -0.004 0.081 -0.007 0.004 -0.002 0.004 -0.006 -0.002 -0.007 -0.007 -0.001 -0.039 0.004 -0.079 0.004 -0.049 0 -0.07 -0.005 -0.073 -0.004z"/>
</svg>
